<?xml version="1.0" encoding="utf-8"?><svg viewBox="0 0 496 512" xmlns="http://www.w3.org/2000/svg" xmlns:xlink="http://www.w3.org/1999/xlink"><style>:root>svg{display:none}:root>svg:target{display:block}</style><svg viewBox="0 0 384 512" id="apple" xmlns="http://www.w3.org/2000/svg"><!--! Font Awesome Free 6.1.1 by @fontawesome - https://fontawesome.com License - https://fontawesome.com/license/free (Icons: CC BY 4.0, Fonts: SIL OFL 1.1, Code: MIT License) Copyright 2022 Fonticons, Inc.--><path d="M318.7 268.7c-.2-36.7 16.4-64.4 50-84.8-18.8-26.9-47.2-41.7-84.7-44.6-35.5-2.8-74.3 20.7-88.5 20.7-15 0-49.4-19.7-76.4-19.7C63.3 141.2 4 184.8 4 273.5q0 39.3 14.4 81.2c12.8 36.7 59 126.7 107.2 125.2 25.2-.6 43-17.9 75.8-17.9 31.8 0 48.3 17.9 76.4 17.9 48.6-.7 90.4-82.5 102.6-119.3-65.2-30.7-61.7-90-61.7-91.9zm-56.6-164.2c27.3-32.4 24.8-61.9 24-72.5-24.1 1.4-52 16.4-67.9 34.9-17.5 19.8-27.8 44.3-25.6 71.9 26.1 2 49.9-11.4 69.5-34.3z"/></svg><svg viewBox="0 0 448 512" id="facebook-square" xmlns="http://www.w3.org/2000/svg"><!--! Font Awesome Free 6.1.1 by @fontawesome - https://fontawesome.com License - https://fontawesome.com/license/free (Icons: CC BY 4.0, Fonts: SIL OFL 1.1, Code: MIT License) Copyright 2022 Fonticons, Inc.--><path d="M400 32H48A48 48 0 000 80v352a48 48 0 0048 48h137.25V327.69h-63V256h63v-54.64c0-62.15 37-96.48 93.67-96.48 27.14 0 55.52 4.84 55.52 4.84v61h-31.27c-30.81 0-40.42 19.12-40.42 38.73V256h68.78l-11 71.69h-57.78V480H400a48 48 0 0048-48V80a48 48 0 00-48-48z"/></svg><svg viewBox="0 0 448 512" id="linkedin" xmlns="http://www.w3.org/2000/svg"><!--! Font Awesome Free 6.1.1 by @fontawesome - https://fontawesome.com License - https://fontawesome.com/license/free (Icons: CC BY 4.0, Fonts: SIL OFL 1.1, Code: MIT License) Copyright 2022 Fonticons, Inc.--><path d="M416 32H31.9C14.3 32 0 46.5 0 64.3v383.4C0 465.5 14.3 480 31.9 480H416c17.6 0 32-14.5 32-32.3V64.3c0-17.8-14.4-32.3-32-32.3zM135.4 416H69V202.2h66.5V416zm-33.2-243c-21.3 0-38.5-17.3-38.5-38.5S80.9 96 102.2 96c21.2 0 38.5 17.3 38.5 38.5 0 21.3-17.2 38.5-38.5 38.5zm282.1 243h-66.4V312c0-24.8-.5-56.7-34.5-56.7-34.6 0-39.9 27-39.9 54.9V416h-66.4V202.2h63.7v29.2h.9c8.9-16.8 30.6-34.5 62.9-34.5 67.2 0 79.7 44.3 79.7 101.9V416z"/></svg><svg viewBox="0 0 496 512" id="telegram" xmlns="http://www.w3.org/2000/svg"><!--! Font Awesome Free 6.1.1 by @fontawesome - https://fontawesome.com License - https://fontawesome.com/license/free (Icons: CC BY 4.0, Fonts: SIL OFL 1.1, Code: MIT License) Copyright 2022 Fonticons, Inc.--><path d="M248 8C111.033 8 0 119.033 0 256s111.033 248 248 248 248-111.033 248-248S384.967 8 248 8zm114.952 168.66c-3.732 39.215-19.881 134.378-28.1 178.3-3.476 18.584-10.322 24.816-16.948 25.425-14.4 1.326-25.338-9.517-39.287-18.661-21.827-14.308-34.158-23.215-55.346-37.177-24.485-16.135-8.612-25 5.342-39.5 3.652-3.793 67.107-61.51 68.335-66.746.153-.655.3-3.1-1.154-4.384s-3.59-.849-5.135-.5q-3.283.746-104.608 69.142-14.845 10.194-26.894 9.934c-8.855-.191-25.888-5.006-38.551-9.123-15.531-5.048-27.875-7.717-26.8-16.291q.84-6.7 18.45-13.7 108.446-47.248 144.628-62.3c68.872-28.647 83.183-33.623 92.511-33.789 2.052-.034 6.639.474 9.61 2.885a10.452 10.452 0 013.53 6.716 43.765 43.765 0 01.417 9.769z"/></svg><svg viewBox="0 0 448 512" id="tumblr-square" xmlns="http://www.w3.org/2000/svg"><!--! Font Awesome Free 6.1.1 by @fontawesome - https://fontawesome.com License - https://fontawesome.com/license/free (Icons: CC BY 4.0, Fonts: SIL OFL 1.1, Code: MIT License) Copyright 2022 Fonticons, Inc.--><path d="M400 32H48C21.5 32 0 53.5 0 80v352c0 26.5 21.5 48 48 48h352c26.5 0 48-21.5 48-48V80c0-26.5-21.5-48-48-48zm-82.3 364.2c-8.5 9.1-31.2 19.8-60.9 19.8-75.5 0-91.9-55.5-91.9-87.9v-90h-29.7c-3.4 0-6.2-2.8-6.2-6.2v-42.5c0-4.5 2.8-8.5 7.1-10 38.8-13.7 50.9-47.5 52.7-73.2.5-6.9 4.1-10.2 10-10.2h44.3c3.4 0 6.2 2.8 6.2 6.2v72h51.9c3.4 0 6.2 2.8 6.2 6.2v51.1c0 3.4-2.8 6.2-6.2 6.2h-52.1V321c0 21.4 14.8 33.5 42.5 22.4 3-1.2 5.6-2 8-1.4 2.2.5 3.6 2.1 4.6 4.9l13.8 40.2c1 3.2 2 6.7-.3 9.1z"/></svg></svg>